# xmcd CD database file
#
# Track frame offsets:
#	150
#	18563
#	30218
#
# Disc length: 645 seconds
#
# Revision: 1
# Processed by: cddbd v1.5.1PL0 Copyright (c) Steve Scherf et al.
# Submitted via: CDex 1.51
#
DISCID=15028303
DTITLE=カンニング - カンニングのヘイ・ユウ・ブルース
DYEAR=2004
DGENRE=J-POP
TTITLE0=カンニングのヘイ・ユウ・ブルース
TTITLE1=田舎の娘
TTITLE2=カンニングのヘイ・ユウ・ブルース(カラオケ)
EXTD=YEAR: 2004.10.21
EXTT0=
EXTT1=
EXTT2=
PLAYORDER=
